<mxfile host="65bd71144e">
    <diagram id="vxDaynymodx5xM6Dud2r" name="Page-1">
        <mxGraphModel dx="1158" dy="1806" grid="1" gridSize="10" guides="1" tooltips="1" connect="1" arrows="1" fold="1" page="1" pageScale="1" pageWidth="850" pageHeight="1100" math="0" shadow="0">
            <root>
                <mxCell id="0"/>
                <mxCell id="1" parent="0"/>
                <mxCell id="12" value="User Space" style="rounded=0;whiteSpace=wrap;html=1;fontSize=21;fillColor=#1ba1e2;strokeColor=#006EAF;fontColor=#ffffff;verticalAlign=top;" vertex="1" parent="1">
                    <mxGeometry x="10" y="10" width="220" height="170" as="geometry"/>
                </mxCell>
                <mxCell id="13" value="Kernel Space" style="rounded=0;whiteSpace=wrap;html=1;fontSize=21;fillColor=#a20025;strokeColor=#6F0000;fontColor=#ffffff;verticalAlign=top;" vertex="1" parent="1">
                    <mxGeometry x="230" y="10" width="480" height="170" as="geometry"/>
                </mxCell>
                <mxCell id="9" style="edgeStyle=none;html=1;exitX=1;exitY=0.25;exitDx=0;exitDy=0;entryX=0;entryY=0.25;entryDx=0;entryDy=0;fontSize=21;endArrow=open;endFill=0;endSize=16;" edge="1" parent="1" source="2" target="3">
                    <mxGeometry relative="1" as="geometry"/>
                </mxCell>
                <mxCell id="2" value="User&lt;br style=&quot;font-size: 21px;&quot;&gt;Process" style="rounded=1;whiteSpace=wrap;html=1;fontSize=21;" vertex="1" parent="1">
                    <mxGeometry x="30" y="50" width="150" height="120" as="geometry"/>
                </mxCell>
                <mxCell id="7" style="edgeStyle=none;html=1;exitX=1;exitY=0.25;exitDx=0;exitDy=0;entryX=0;entryY=0.25;entryDx=0;entryDy=0;fontSize=21;endArrow=open;endFill=0;endSize=16;" edge="1" parent="1" source="3" target="4">
                    <mxGeometry relative="1" as="geometry"/>
                </mxCell>
                <mxCell id="10" style="edgeStyle=none;html=1;exitX=0;exitY=0.75;exitDx=0;exitDy=0;entryX=1;entryY=0.75;entryDx=0;entryDy=0;fontSize=21;endArrow=open;endFill=0;endSize=16;" edge="1" parent="1" source="3" target="2">
                    <mxGeometry relative="1" as="geometry"/>
                </mxCell>
                <mxCell id="3" value="VFS" style="rounded=1;whiteSpace=wrap;html=1;fontSize=21;" vertex="1" parent="1">
                    <mxGeometry x="280" y="50" width="150" height="120" as="geometry"/>
                </mxCell>
                <mxCell id="8" style="edgeStyle=none;html=1;exitX=0;exitY=0.75;exitDx=0;exitDy=0;entryX=1;entryY=0.75;entryDx=0;entryDy=0;fontSize=21;endArrow=open;endFill=0;endSize=16;" edge="1" parent="1" source="4" target="3">
                    <mxGeometry relative="1" as="geometry"/>
                </mxCell>
                <mxCell id="4" value="Device Driver" style="rounded=1;whiteSpace=wrap;html=1;fontSize=21;" vertex="1" parent="1">
                    <mxGeometry x="530" y="50" width="150" height="120" as="geometry"/>
                </mxCell>
                <mxCell id="14" value="System&lt;br&gt;Calls" style="text;html=1;strokeColor=none;fillColor=none;align=center;verticalAlign=middle;whiteSpace=wrap;rounded=0;fontSize=21;" vertex="1" parent="1">
                    <mxGeometry x="210" y="100" width="40" height="20" as="geometry"/>
                </mxCell>
            </root>
        </mxGraphModel>
    </diagram>
</mxfile>